<svg xmlns="http://www.w3.org/2000/svg" viewBox="0 0 30 30"><path d="M13.6 9.1l-4.5 4.5c.3.4.4.9.4 1.4 0 1.5-1.2 2.7-2.8 2.8C5.2 17.8 4 16.5 4 15c0-1.5 1.2-2.7 2.7-2.8.7 0 1.3.2 1.8.7l4.4-4.4c-.4-.5-.7-1.1-.7-1.8C12.2 5.2 13.5 4 15 4c1.4 0 2.5 1 2.7 2.3h2.8C20.8 5 21.9 4 23.2 4 24.8 4 26 5.2 26 6.7c0 1.5-1.2 2.7-2.7 2.8-1.3 0-2.5-1-2.7-2.3h-2.8c-.2 1.3-1.4 2.3-2.7 2.3-.6 0-1.1-.1-1.5-.4zM17 21.4l4.4-4.4c-.6-.5-.9-1.3-.9-2 0-1.5 1.2-2.7 2.7-2.8 1.5 0 2.7 1.2 2.8 2.7 0 1.5-1.2 2.7-2.7 2.8-.4 0-.8-.1-1.1-.2l-4.6 4.6c.1.3.2.7.2 1.1 0 1.5-1.2 2.7-2.8 2.8-1.3 0-2.5-1-2.7-2.3H9.5C9.2 25 8.1 26 6.8 26 5.2 26 4 24.8 4 23.3c0-1.5 1.2-2.7 2.7-2.8 1.4 0 2.5 1 2.7 2.3h2.8c.2-1.3 1.4-2.3 2.7-2.3.9 0 1.6.3 2.1.9zM6.8 9.5C5.2 9.5 4 8.3 4 6.8 4 5.2 5.2 4 6.8 4c1.5 0 2.7 1.2 2.8 2.7-.1 1.6-1.3 2.8-2.8 2.8zm0-4.3c-.9 0-1.6.7-1.6 1.6s.7 1.6 1.6 1.6 1.6-.7 1.6-1.6c-.1-.9-.8-1.6-1.6-1.6zM15 8.3c.9 0 1.6-.7 1.6-1.6s-.7-1.5-1.6-1.5-1.6.7-1.6 1.6.7 1.5 1.6 1.5zm8.2 0c.9 0 1.6-.7 1.6-1.6s-.7-1.6-1.6-1.6-1.6.7-1.6 1.6.8 1.6 1.6 1.6zm0 8.3c.9 0 1.6-.7 1.6-1.6s-.7-1.6-1.6-1.6-1.6.7-1.6 1.6.8 1.6 1.6 1.6zm0 3.9c1.5 0 2.7 1.2 2.8 2.7 0 1.5-1.2 2.7-2.7 2.8-1.5 0-2.7-1.2-2.8-2.7 0-1.6 1.2-2.8 2.7-2.8zm0 4.3c.9 0 1.6-.7 1.6-1.6s-.7-1.6-1.6-1.6-1.6.7-1.6 1.6.8 1.6 1.6 1.6zM15 12.2c1.5 0 2.7 1.2 2.8 2.7 0 1.5-1.2 2.7-2.7 2.8-1.5 0-2.7-1.2-2.8-2.7-.1-1.5 1.2-2.7 2.7-2.8zm0 4.4c.9 0 1.6-.7 1.6-1.6s-.7-1.6-1.6-1.6-1.6.7-1.6 1.6.7 1.6 1.6 1.6zm0 8.2c.9 0 1.6-.7 1.6-1.6s-.7-1.6-1.6-1.6-1.6.7-1.6 1.6c0 .9.7 1.6 1.6 1.6zm-8.2 0c.9 0 1.6-.7 1.6-1.6s-.7-1.6-1.6-1.6-1.6.7-1.6 1.6c0 .9.7 1.6 1.6 1.6zm0-8.3c.9 0 1.6-.7 1.6-1.6 0-.9-.7-1.6-1.6-1.6s-1.6.8-1.6 1.7c0 .8.7 1.6 1.6 1.5z"/></svg>