<svg id="Layer_1" xmlns="http://www.w3.org/2000/svg" viewBox="0 0 30 30"><style></style><path d="M24.5 7.3c-1.1-1.1-2.5-1.7-4.1-1.7-1.7 0-3.4.7-4.7 1.8-1.6-1.4-2.9-2.1-4.2-2.1-1.8 0-3.5.7-4.7 2-.9.9-1.5 2-1.8 3.4-.1.3.1.6.4.6.3 0 .6-.1.6-.4.3-1.1.8-2.1 1.5-2.9 1-1.1 2.4-1.6 3.8-1.6 1.1 0 2.4.7 3.8 2.1.2.2.6.2.8 0 1.2-1.2 2.7-1.9 4.3-1.9 1.3 0 2.5.5 3.4 1.4 1 1.1 1.6 2.5 1.6 4 0 .7-.1 1.4-.4 2h-4.3c-.5 0-1 .2-1.3.5l-2.1 1.7c-.3.2-.6.3-.9.2-.3-.1-.6-.3-.7-.6l-1.3-3c-.3-.7-.9-1.1-1.6-1.3-.7-.1-1.5.1-1.9.7l-1.3 1.4c-.2.3-.5.4-.8.4H3c-.3 0-.5.3-.5.6s.2.5.5.5h5.6c.6 0 1.2-.3 1.6-.7l1.3-1.4c.2-.3.6-.4 1-.3.4.1.7.3.8.6l1.3 3c.3.6.8 1.1 1.4 1.2.6.2 1.3 0 1.8-.4l2.1-1.7c.2-.1.4-.2.7-.2h3.8c-.2.3-.4.6-.7.9L16.4 23c-.4.4-1.1.4-1.5 0l-5.7-5.5c-.2-.2-.5-.2-.8 0-.2.2-.2.5 0 .8l5.7 5.5c.8.8 2.2.8 3 0l7.4-7.1c1.2-1.2 1.9-3 1.9-4.7 0-1.8-.7-3.5-1.9-4.7z" fill-rule="evenodd" clip-rule="evenodd"/></svg>