<svg xmlns="http://www.w3.org/2000/svg" style="display: none;"> 
 
<symbol id="icon-facebook" viewBox="0 0 20 20">
  <title>Facebook</title>
  <path d="M18.9 0H1.1C.5 0 0 .5 0 1.1v17.8c0 .6.5 1.1 1.1 1.1h9.6v-7.7H8.1v-3h2.6V7c0-2.6 1.6-4 3.9-4 1.1 0 2.1.1 2.3.1v2.7h-1.6c-1.2 0-1.5.6-1.5 1.5v1.9h3l-.4 3h-2.6V20h5.1c.6 0 1.1-.5 1.1-1.1V1.1c0-.6-.5-1.1-1.1-1.1"/>
</symbol>  

<symbol id="icon-linkedin" viewBox="0 0 20 20">
  <title>Linkedin</title>
  <path d="M17 17h-3v-4.6c0-1.1 0-2.5-1.5-2.5s-1.8 1.2-1.8 2.4V17h-3V7.5h2.8v1.3c.4-.8 1.4-1.5 2.8-1.5 3 0 3.6 2 3.6 4.5.1 0 .1 5.2.1 5.2zM4.4 6.2c-1 0-1.7-.8-1.7-1.7s.8-1.7 1.7-1.7c.9 0 1.7.8 1.7 1.7s-.7 1.7-1.7 1.7zM5.9 17H3V7.5h3V17h-.1zM18.5 0h-17C.7 0 0 .6 0 1.4v17.1c0 .9.7 1.5 1.5 1.5h17c.8 0 1.5-.6 1.5-1.4V1.4c0-.8-.7-1.4-1.5-1.4z"/>
</symbol> 

<symbol id="icon-arrow-down" viewBox="0 0 12 14">
  <path id="a" d="M5 10.3V1c0-.6.4-1 1-1s1 .4 1 1v9.4l3-2.9c.5-.4 1.2-.4 1.6 0 .4.4.4 1.1 0 1.5l-4.7 4.6c-.5.4-1.2.4-1.6 0 0 0-.1 0-.1-.1L.3 8.9c-.4-.4-.4-1.1 0-1.5.5-.4 1.2-.4 1.6 0L5 10.3z"/>
</symbol> 

<symbol id="icon-next" viewBox="0 0 7 12">
  <path d="M6.7 6.7c-.1 0-.1.1 0 0l-4.8 5c-.4.4-1.1.4-1.5 0-.4-.5-.4-1.2 0-1.6l4-4.1L.5 2C0 1.5 0 .8.5.3.9-.1 1.6-.1 2 .3L6.6 5c.5.5.5 1.3.1 1.7z"/>
</symbol>

<symbol id="icon-previous" viewBox="0 0 7 12">
  <path d="M.4 5.3c.1 0 .1-.1 0 0l4.8-5c.4-.4 1.1-.4 1.5 0 .4.5.4 1.2 0 1.6L2.7 6l3.9 4c.5.5.5 1.2 0 1.7-.4.4-1.1.4-1.5 0L.5 7C0 6.5 0 5.7.4 5.3z"/>
</symbol>

<symbol id="icon-data-accessibility" viewBox="0 0 30 30">
  <path d="M7 7v6h16V7H7zm0-1h16c.6 0 1 .4 1 1v6c0 .6-.4 1-1 1H7c-.6 0-1-.4-1-1V7c0-.6.4-1 1-1zm10 5c-.6 0-1-.4-1-1s.4-1 1-1 1 .4 1 1-.4 1-1 1zm3 0c-.6 0-1-.4-1-1s.4-1 1-1 1 .4 1 1-.4 1-1 1zM7 17v6h16v-6H7zm0-1h16c.6 0 1 .4 1 1v6c0 .6-.4 1-1 1H7c-.6 0-1-.4-1-1v-6c0-.6.4-1 1-1zm10 5c-.6 0-1-.4-1-1s.4-1 1-1 1 .4 1 1-.4 1-1 1zm3 0c-.6 0-1-.4-1-1s.4-1 1-1 1 .4 1 1-.4 1-1 1z"/>
</symbol>

<symbol id="icon-data-processing" viewBox="0 0 30 30">
  <path d="M13.6 9.1l-4.5 4.5c.3.4.4.9.4 1.4 0 1.5-1.2 2.7-2.8 2.8C5.2 17.8 4 16.5 4 15c0-1.5 1.2-2.7 2.7-2.8.7 0 1.3.2 1.8.7l4.4-4.4c-.4-.5-.7-1.1-.7-1.8C12.2 5.2 13.5 4 15 4c1.4 0 2.5 1 2.7 2.3h2.8C20.8 5 21.9 4 23.2 4 24.8 4 26 5.2 26 6.7c0 1.5-1.2 2.7-2.7 2.8-1.3 0-2.5-1-2.7-2.3h-2.8c-.2 1.3-1.4 2.3-2.7 2.3-.6 0-1.1-.1-1.5-.4zM17 21.4l4.4-4.4c-.6-.5-.9-1.3-.9-2 0-1.5 1.2-2.7 2.7-2.8 1.5 0 2.7 1.2 2.8 2.7 0 1.5-1.2 2.7-2.7 2.8-.4 0-.8-.1-1.1-.2l-4.6 4.6c.1.3.2.7.2 1.1 0 1.5-1.2 2.7-2.8 2.8-1.3 0-2.5-1-2.7-2.3H9.5C9.2 25 8.1 26 6.8 26 5.2 26 4 24.8 4 23.3c0-1.5 1.2-2.7 2.7-2.8 1.4 0 2.5 1 2.7 2.3h2.8c.2-1.3 1.4-2.3 2.7-2.3.9 0 1.6.3 2.1.9zM6.8 9.5C5.2 9.5 4 8.3 4 6.8 4 5.2 5.2 4 6.8 4c1.5 0 2.7 1.2 2.8 2.7-.1 1.6-1.3 2.8-2.8 2.8zm0-4.3c-.9 0-1.6.7-1.6 1.6s.7 1.6 1.6 1.6 1.6-.7 1.6-1.6c-.1-.9-.8-1.6-1.6-1.6zM15 8.3c.9 0 1.6-.7 1.6-1.6s-.7-1.5-1.6-1.5-1.6.7-1.6 1.6.7 1.5 1.6 1.5zm8.2 0c.9 0 1.6-.7 1.6-1.6s-.7-1.6-1.6-1.6-1.6.7-1.6 1.6.8 1.6 1.6 1.6zm0 8.3c.9 0 1.6-.7 1.6-1.6s-.7-1.6-1.6-1.6-1.6.7-1.6 1.6.8 1.6 1.6 1.6zm0 3.9c1.5 0 2.7 1.2 2.8 2.7 0 1.5-1.2 2.7-2.7 2.8-1.5 0-2.7-1.2-2.8-2.7 0-1.6 1.2-2.8 2.7-2.8zm0 4.3c.9 0 1.6-.7 1.6-1.6s-.7-1.6-1.6-1.6-1.6.7-1.6 1.6.8 1.6 1.6 1.6zM15 12.2c1.5 0 2.7 1.2 2.8 2.7 0 1.5-1.2 2.7-2.7 2.8-1.5 0-2.7-1.2-2.8-2.7-.1-1.5 1.2-2.7 2.7-2.8zm0 4.4c.9 0 1.6-.7 1.6-1.6s-.7-1.6-1.6-1.6-1.6.7-1.6 1.6.7 1.6 1.6 1.6zm0 8.2c.9 0 1.6-.7 1.6-1.6s-.7-1.6-1.6-1.6-1.6.7-1.6 1.6c0 .9.7 1.6 1.6 1.6zm-8.2 0c.9 0 1.6-.7 1.6-1.6s-.7-1.6-1.6-1.6-1.6.7-1.6 1.6c0 .9.7 1.6 1.6 1.6zm0-8.3c.9 0 1.6-.7 1.6-1.6 0-.9-.7-1.6-1.6-1.6s-1.6.8-1.6 1.7c0 .8.7 1.6 1.6 1.5z"/>
</symbol>

<symbol id="icon-data-visualization" viewBox="0 0 30 30">
  <path d="M15 20c2.8 0 5-2.2 5-5s-2.2-5-5-5-5 2.2-5 5 2.2 5 5 5zm0 1c-3.3 0-6-2.7-6-6s2.7-6 6-6 6 2.7 6 6-2.7 6-6 6zm-8.9.4c-.2-.3-.4-.5-.5-.8l.9-.5c.2.3.3.5.5.8l-.9.5zm-.5-3l-.3-.9-1 .3c.1.3.2.6.3 1l1-.4zm-.4-5.3c.1-.3.1-.6.2-.9l-1-.3c-.1.3-.2.6-.2 1l1 .2zm3.6 9.7c-.2-.2-.5-.4-.7-.6l-.7.7.7.7.7-.8zm2.3 1.4c-.3-.1-.6-.2-.8-.4l-.5.9c.3.2.6.3.9.4l.4-.9zM7.6 8.3c.2-.3.4-.5.7-.7l-.7-.7c-.3.2-.5.4-.7.7l.7.7zM5 15v-.1H4v1l1-.1V15zM15.9 5l.1-1h-1-.1v1h1zm-3.7.4c.3-.1.6-.2.9-.2l-.2-1c-.3.1-.7.1-1 .2l.3 1zM9.7 6.5c.3-.2.5-.3.8-.4l-.5-.9c-.2.1-.5.3-.8.5l.5.8zm-3.6 4c.1-.3.3-.5.4-.8l-.8-.5c-.2.3-.4.5-.5.8l.9.5zm7.6 14.4c-.3 0-.6-.1-.9-.2l-.2 1c.3.1.7.1 1 .2l.1-1zM24 21.3l-.8-.6c-.2.2-.4.5-.6.7l.8.6c.2-.2.4-.4.6-.7zm-.3-13.1l-.7-.7-.7.7c.2.2.4.5.6.7l.8-.7zm1.3 7.4c0 .3-.1.6-.1.9l1 .2c.1-.3.1-.7.1-1l-1-.1zm-3.7 7.1c-.2.2-.5.4-.7.5l.6.8c.3-.2.5-.4.8-.6l-.7-.7zm3.1-4.4c-.1.3-.2.6-.3.8l.9.4c.1-.3.3-.6.4-.9l-1-.3zM19 24.2c-.3.1-.6.2-.8.3l.3.9c.3-.1.6-.2.9-.4l-.4-.8zm4.9-13.8c.1.3.3.5.4.8l.9-.4c-.1-.3-.3-.6-.4-.9l-.9.5zm2 3.3c0-.3-.1-.7-.2-1l-1 .2c.1.3.1.6.1.9l1.1-.1zm-4.4-7.5c-.2-.2-.5-.4-.8-.6l-.5.8c.3.2.5.3.8.5l.5-.7zm-2.6-1.5l-.9-.3-.3 1 .9.3.3-1zm-2.5 20.2c-.3 0-.6.1-.9.1v1c.3 0 .7 0 1-.1l-.1-1z"/>
</symbol>

<symbol id="icon-agriculture" viewBox="0 0 30 30">
  <path d="M15 12.3l-.3-.3c-.1-.1-2.7-2.2-2.7-4.9s2.6-4.8 2.7-4.9L15 2l.3.3c.1 0 2.7 2.1 2.7 4.8s-2.6 4.8-2.7 4.9l-.3.3zm-2-5.2c0 1.7 1.4 3.2 2 3.8.6-.6 2-2.1 2-3.8s-1.4-3.2-2-3.8c-.6.6-2 2.1-2 3.8zm10.9 3.1c0 .2.6 4.1-1.6 6.3-1.4 1.4-3.7 1.7-5.1 1.7-.4 0-.9 0-1.3-.1l-.4-.1-.1-.4c0-.2-.6-4.1 1.6-6.3s6.2-1.6 6.3-1.6l.4.1.2.4zm-2.4 5.6c1.4-1.4 1.4-4 1.4-5-1-.1-3.6-.1-5 1.4-1.4 1.4-1.4 4-1.4 5 1 .1 3.6.1 5-1.4zm2 2.6l.4.1.1.4c0 .2.6 4.1-1.6 6.3-1.4 1.4-3.7 1.7-5.1 1.7-.4 0-.9 0-1.3-.1l-.4-.1-.1-.4c0-.2-.6-4.1 1.6-6.3s6.2-1.7 6.4-1.6zm-2 6c1.4-1.4 1.4-4 1.4-5-1-.1-3.6-.1-5 1.4-1.4 1.4-1.4 4-1.4 5 1 0 3.6 0 5-1.4zm-8.6-13c2.2 2.2 1.6 6.2 1.6 6.3l-.1.4-.4.1c-.4.1-.9.1-1.3.1-1.4 0-3.6-.3-5.1-1.7C5.4 14.4 6 10.4 6 10.3l.1-.4.4-.1c.2 0 4.2-.6 6.4 1.6zm.6 5.8c.1-1 .1-3.6-1.4-5-1.4-1.4-4-1.4-5-1.4-.1 1-.1 3.6 1.4 5 1.4 1.5 4 1.5 5 1.4zm-7 1.2c.2 0 4.1-.6 6.3 1.6s1.6 6.2 1.6 6.3l-.1.4-.3.1c-.4.1-.9.1-1.3.1-1.4 0-3.6-.3-5.1-1.7C5.5 23 6.1 19 6.1 18.8l.1-.4h.3zm7 7.4c.1-1 .1-3.6-1.4-5-1.4-1.4-4-1.4-5-1.4-.1 1-.1 3.6 1.4 5 1.4 1.4 4 1.4 5 1.4z"/>
</symbol>

<symbol id="icon-health" viewBox="0 0 30 30">
  <path d="M24.5 7.3c-1.1-1.1-2.5-1.7-4.1-1.7-1.7 0-3.4.7-4.7 1.8-1.6-1.4-2.9-2.1-4.2-2.1-1.8 0-3.5.7-4.7 2-.9.9-1.5 2-1.8 3.4-.1.3.1.6.4.6.3 0 .6-.1.6-.4.3-1.1.8-2.1 1.5-2.9 1-1.1 2.4-1.6 3.8-1.6 1.1 0 2.4.7 3.8 2.1.2.2.6.2.8 0 1.2-1.2 2.7-1.9 4.3-1.9 1.3 0 2.5.5 3.4 1.4 1 1.1 1.6 2.5 1.6 4 0 .7-.1 1.4-.4 2h-4.3c-.5 0-1 .2-1.3.5l-2.1 1.7c-.3.2-.6.3-.9.2-.3-.1-.6-.3-.7-.6l-1.3-3c-.3-.7-.9-1.1-1.6-1.3-.7-.1-1.5.1-1.9.7l-1.3 1.4c-.2.3-.5.4-.8.4H3c-.3 0-.5.3-.5.6s.2.5.5.5h5.6c.6 0 1.2-.3 1.6-.7l1.3-1.4c.2-.3.6-.4 1-.3.4.1.7.3.8.6l1.3 3c.3.6.8 1.1 1.4 1.2.6.2 1.3 0 1.8-.4l2.1-1.7c.2-.1.4-.2.7-.2h3.8c-.2.3-.4.6-.7.9L16.4 23c-.4.4-1.1.4-1.5 0l-5.7-5.5c-.2-.2-.5-.2-.8 0-.2.2-.2.5 0 .8l5.7 5.5c.8.8 2.2.8 3 0l7.4-7.1c1.2-1.2 1.9-3 1.9-4.7 0-1.8-.7-3.5-1.9-4.7z"/>
</symbol>

<symbol id="icon-industry-4.0" viewBox="0 0 30 30">
  <path d="M25.5 16.5c.1.1.2.2.2.4v9.6c0 .3-.2.5-.5.5H5.5c-.3 0-.5-.2-.5-.5V11.1c0-.3.2-.5.5-.5h3.9c.3 0 .5.2.5.5V20l7.2-3.5c.2-.1.3-.1.5 0 .1.1.2.2.2.4V20l7.2-3.5c.2-.1.3-.1.5 0zM8.9 11.6H6v1.9h3v-1.9zM24.7 26v-8.4l-7.2 3.5c-.2.1-.3.1-.5 0-.1-.1-.2-.2-.2-.4v-3.1l-7.2 3.5c-.2.1-.3.1-.5 0-.1-.1-.2-.2-.2-.4v-6.3H6V26h18.7zM11 22.6c.3 0 .5.2.5.5v1.1c0 .3-.2.5-.5.5s-.5-.2-.5-.5v-1.1c0-.2.2-.5.5-.5zm3.3 0c.3 0 .5.2.5.5v1.1c0 .3-.2.5-.5.5s-.5-.2-.5-.5v-1.1c-.1-.2.2-.5.5-.5zm5.4 2.2c-.3 0-.5-.2-.5-.5v-1.1c0-.3.2-.5.5-.5s.5.2.5.5v1.1c.1.3-.2.5-.5.5zm2.2 0c-.3 0-.5-.2-.5-.5v-1.1c0-.3.2-.5.5-.5s.5.2.5.5v1.1c.1.3-.2.5-.5.5zM7.7 7.7c-.3 0-.5-.2-.5-.5 0-2.3 2-4.2 4.5-4.2s4.5 1.9 4.5 4.2c0 .8.7 1.4 1.5 1.4s1.5-.6 1.5-1.4c0-.3.2-.5.5-.5s.5.2.5.5c0 1.3-1.1 2.3-2.5 2.3s-2.5-1-2.5-2.3c0-1.8-1.6-3.3-3.5-3.3S8.2 5.4 8.2 7.2c0 .3-.2.5-.5.5z"/>
</symbol>

<symbol id="icon-smart-city" viewBox="0 0 30 30">
  <path d="M5 27.6v-15c0-1.2 1-2.2 2.2-2.2V8.1c0-.6.5-1.1 1.1-1.1h1.1V2.6c0-.4.3-.6.6-.6s.6.2.6.6V7h1.1c.6 0 1.1.5 1.1 1.1v2.2c1.2 0 2.2 1 2.2 2.2V17h3.9v-3.3h2.2V12h3.3v1.7h.6v13.9H5zm6.7-18.9c0-.3-.2-.6-.6-.6H8.9c-.3 0-.6.2-.6.6v1.7h3.3l.1-1.7zm2.2 3.9c0-.6-.5-1.1-1.1-1.1H7.2c-.6 0-1.1.5-1.1 1.1v13.9h7.8V12.6zm5 5.5H15v8.3h3.9v-8.3zm5-3.3H20v11.7h3.9V14.8zm-2.2 1.6h.6c.3 0 .6.2.6.6v.6c0 .3-.2.6-.6.6h-.6c-.3 0-.6-.2-.6-.6V17c0-.3.3-.6.6-.6zm0 3.4h.6c.3 0 .6.2.6.6v.6c0 .3-.2.6-.6.6h-.6c-.3 0-.6-.2-.6-.6v-.6c0-.4.3-.6.6-.6zm0 3.3h.6c.3 0 .6.2.6.6v.6c0 .3-.2.6-.6.6h-.6c-.3 0-.6-.2-.6-.6v-.6c0-.3.3-.6.6-.6zm-5-3.3h.6c.3 0 .6.2.6.6v.6c0 .3-.2.6-.6.6h-.6c-.3 0-.6-.2-.6-.6v-.6c0-.4.3-.6.6-.6zm0 3.3h.6c.3 0 .6.2.6.6v.6c0 .3-.2.6-.6.6h-.6c-.3 0-.6-.2-.6-.6v-.6c0-.3.3-.6.6-.6zm-5 1.7h-.6c-.3 0-.6-.2-.6-.6v-.6c0-.3.2-.6.6-.6h.6c.3 0 .6.2.6.6v.6c-.1.3-.3.6-.6.6zm0-3.4h-.6c-.3 0-.6-.2-.6-.6v-.6c0-.3.2-.6.6-.6h.6c.3 0 .6.2.6.6v.6c-.1.4-.3.6-.6.6zm0-3.3h-.6c-.3 0-.6-.2-.6-.6V17c0-.3.2-.6.6-.6h.6c.3 0 .6.2.6.6v.6c-.1.3-.3.5-.6.5zm0-3.3h-.6c-.3 0-.6-.2-.6-.6v-.6c0-.3.2-.6.6-.6h.6c.3 0 .6.2.6.6v.6c-.1.3-.3.6-.6.6zm-2.8 10h-.6c-.3 0-.6-.2-.6-.6v-.6c0-.3.2-.6.6-.6h.6c.3 0 .6.2.6.6v.6c-.1.3-.3.6-.6.6zm0-3.4h-.6c-.3 0-.6-.2-.6-.6v-.6c0-.3.2-.6.6-.6h.6c.3 0 .6.2.6.6v.6c-.1.4-.3.6-.6.6zm0-3.3h-.6c-.3 0-.6-.2-.6-.6V17c0-.3.2-.6.6-.6h.6c.3 0 .6.2.6.6v.6c-.1.3-.3.5-.6.5zm0-3.3h-.6c-.3 0-.6-.2-.6-.6v-.6c0-.3.2-.6.6-.6h.6c.3 0 .6.2.6.6v.6c-.1.3-.3.6-.6.6z"/>
</symbol>

<symbol id="icon-quote" viewBox="0 0 17 13">
  <path d="M11.2 12.5c-.6 0-1.1-.5-1.1-1.1V1.6c0-.6.5-1.1 1.1-1.1h4.7c.8 0 1.3.7 1.1 1.5l-2.4 9.6c-.1.5-.6.9-1.1.9h-2.3zm-10.1 0C.5 12.5 0 12 0 11.4V1.6C0 1 .5.5 1.1.5h4.7c.8 0 1.3.7 1.1 1.5l-2.4 9.6c-.1.5-.6.9-1.1.9H1.1z"/>
</symbol>

<symbol id="icon-check" viewBox="0 0 30 30">
  <path id="a_4_" d="M24.3 11.1l-9.2 10.2c-.4.4-.9.6-1.3.6s-.9-.2-1.3-.6l-4.7-5c-.7-.7-1.2-1.9-.4-2.6.7-.7 1.9.5 2.7 1.3l3.7 4.2 8.9-9.5c.7-.7 1.9-2 2.7-1.5.7.5-.3 2.2-1.1 2.9z"/>
</symbol>

<symbol id="icon-question" viewBox="0 0 30 30">
  <path d="M14 19.5c-.2 0-.3-.1-.3-.3v-1.1c0-1.1.2-1.6.8-2.4l1.8-2.5c.9-1.3 1.3-1.9 1.3-2.8C17.7 9 16.6 8 15 8c-1.5 0-2.5.9-2.8 2.5 0 .2-.1.2-.3.2l-1.7-.3c-.2 0-.2-.1-.2-.3.4-2.6 2.3-4.3 5.1-4.3 2.9 0 4.9 1.9 4.9 4.6 0 1.3-.5 2.2-1.4 3.5l-1.8 2.5c-.5.7-.7 1.1-.7 2v.9c0 .2-.1.3-.3.3H14v-.1zm-.4 4.3v-2.2c0-.2.1-.3.3-.3h2.2c.2 0 .3.1.3.3v2.2c0 .2-.1.3-.3.3h-2.2c-.1 0-.3-.1-.3-.3z"/>
</symbol>

<symbol id="icon-external" viewBox="0 0 13 12">
  <path d="M10 6.9h-.5c-.1 0-.1 0-.2.1 0 0-.1.1-.1.2v2.3c0 .3-.1.6-.3.8-.2.2-.5.3-.8.3h-6c-.3 0-.6-.1-.8-.3-.3-.2-.4-.5-.4-.8v-6c0-.3.1-.6.3-.8.2-.2.5-.3.8-.3h5.1c.1 0 .1 0 .2-.1 0 0 .1-.1.1-.2v-.5c0-.1 0-.1-.1-.2 0 0-.1-.1-.2-.1h-5c-.6.1-1.1.3-1.5.7-.4.4-.6.9-.6 1.4v6c0 .6.2 1.1.6 1.5.4.4.9.6 1.5.6h6c.6 0 1.1-.2 1.5-.6.4-.4.6-.9.6-1.5V7.2c0-.1 0-.1-.1-.2 0-.1-.1-.1-.1-.1zM12.9.6c-.1-.1-.2-.1-.3-.1H8.8c-.1 0-.2 0-.3.1-.1.1-.1.2-.1.3s0 .2.1.3l1.3 1.3L5 7.2v.4l.8.8s.1.1.2.1.1 0 .2-.1l4.7-4.7L12.2 5c.1.1.2.1.3.1.1 0 .2 0 .3-.1.1-.2.2-.3.2-.4V.9c0-.1-.1-.2-.1-.3z"/>
</symbol>

</svg>