<svg id="Layer_1" xmlns="http://www.w3.org/2000/svg" viewBox="0 0 30 30"><style></style><path d="M25.5 16.5c.1.1.2.2.2.4v9.6c0 .3-.2.5-.5.5H5.5c-.3 0-.5-.2-.5-.5V11.1c0-.3.2-.5.5-.5h3.9c.3 0 .5.2.5.5V20l7.2-3.5c.2-.1.3-.1.5 0 .1.1.2.2.2.4V20l7.2-3.5c.2-.1.3-.1.5 0zM8.9 11.6H6v1.9h3v-1.9zM24.7 26v-8.4l-7.2 3.5c-.2.1-.3.1-.5 0-.1-.1-.2-.2-.2-.4v-3.1l-7.2 3.5c-.2.1-.3.1-.5 0-.1-.1-.2-.2-.2-.4v-6.3H6V26h18.7zM11 22.6c.3 0 .5.2.5.5v1.1c0 .3-.2.5-.5.5s-.5-.2-.5-.5v-1.1c0-.2.2-.5.5-.5zm3.3 0c.3 0 .5.2.5.5v1.1c0 .3-.2.5-.5.5s-.5-.2-.5-.5v-1.1c-.1-.2.2-.5.5-.5zm5.4 2.2c-.3 0-.5-.2-.5-.5v-1.1c0-.3.2-.5.5-.5s.5.2.5.5v1.1c.1.3-.2.5-.5.5zm2.2 0c-.3 0-.5-.2-.5-.5v-1.1c0-.3.2-.5.5-.5s.5.2.5.5v1.1c.1.3-.2.5-.5.5zM7.7 7.7c-.3 0-.5-.2-.5-.5 0-2.3 2-4.2 4.5-4.2s4.5 1.9 4.5 4.2c0 .8.7 1.4 1.5 1.4s1.5-.6 1.5-1.4c0-.3.2-.5.5-.5s.5.2.5.5c0 1.3-1.1 2.3-2.5 2.3s-2.5-1-2.5-2.3c0-1.8-1.6-3.3-3.5-3.3S8.2 5.4 8.2 7.2c0 .3-.2.5-.5.5z"/></svg>