<svg width="80" height="80" xmlns="http://www.w3.org/2000/svg"><path d="M54.073 9.405a4.704 4.704 0 0 1 0-9.405h21.16a4.705 4.705 0 0 1 4.702 4.702v21.161a4.703 4.703 0 0 1-9.404 0v-9.81L43.292 43.292a4.703 4.703 0 0 1-6.649 0 4.703 4.703 0 0 1 0-6.649L63.882 9.405h-9.809zM70.531 44.67a4.702 4.702 0 0 1 9.404 0v30.563a4.703 4.703 0 0 1-4.702 4.702H4.702A4.703 4.703 0 0 1 0 75.233V4.702A4.703 4.703 0 0 1 4.702 0h30.563a4.703 4.703 0 0 1 0 9.405H9.405v61.126h61.126V44.67z" fill="#fff" fill-rule="nonzero"/></svg>