<svg xmlns="http://www.w3.org/2000/svg" style="fill:url(#a)" viewBox="0 0 158 40"><title>Sentigrate</title><path class="wordmark" fill="#fff" d="M41.6 27.6c-2.5 0-4.9-1-6.2-2.2-.1-.1-.1-.3 0-.4l1.1-1.4c.1-.1.2-.1.4 0 1.1.9 2.9 1.8 4.9 1.8 2.4 0 3.9-1.2 3.9-3 0-1.5-.9-2.5-3.7-2.9l-.9-.1c-3.4-.5-5.2-2.1-5.2-4.9 0-3.1 2.3-5.2 5.8-5.2 2.1 0 4.1.7 5.4 1.6.1.1.2.2.1.4l-.9 1.4c-.1.1-.2.1-.4.1-1.4-.9-2.8-1.3-4.3-1.3-2.2 0-3.4 1.2-3.4 2.9 0 1.5 1 2.5 3.7 2.8l.9.1c3.5.5 5.2 2.1 5.2 4.9 0 3.1-2.2 5.4-6.4 5.4zm15.6 0c-2.5 0-4.3-1.2-5-3.4-.3-.8-.4-1.7-.4-3.1s.1-2.4.4-3.1c.7-2.2 2.5-3.4 4.9-3.4s4.2 1.2 4.9 3.4c.3.8.4 1.7.4 3.6 0 .2-.1.3-.3.3h-7.9c-.1 0-.2.1-.2.2 0 .7.1 1.1.2 1.5.5 1.4 1.6 2.2 3.1 2.2s2.5-.6 3.2-1.4c.1-.1.3-.2.4-.1l1.1 1c.1.1.1.2 0 .4-.9 1-2.6 1.9-4.8 1.9zm-3-7.6H60c.1 0 .2-.1.2-.2 0-.6-.1-1-.2-1.4-.4-1.2-1.5-2-2.9-2s-2.4.7-2.9 2c-.1.4-.2.8-.2 1.4 0 .1.1.2.2.2zm22.4 7.3h-1.7c-.2 0-.3-.1-.3-.3v-7.3c0-2-.9-3.2-2.8-3.2-1.7 0-2.9 1.2-2.9 3V27c0 .2-.1.3-.3.3h-1.7c-.2 0-.3-.1-.3-.3V15.1c0-.2.1-.3.3-.3h1.7c.2 0 .3.1.3.3v1.1c.6-1 1.8-1.7 3.5-1.7 2.7 0 4.3 1.8 4.3 4.7V27c.2.2.1.3-.1.3zm10 .1h-1c-2.4 0-3.4-1.1-3.4-3.5v-7.1c0-.1-.1-.2-.2-.2h-1c-.2 0-.3-.1-.3-.3v-1.2c0-.2.1-.3.3-.3h1c.1 0 .2-.1.2-.2v-3.5c0-.2.1-.3.3-.3h1.7c.2 0 .3.1.3.3v3.5c0 .1.1.2.2.2h2c.2 0 .3.1.3.3v1.2c0 .2-.1.3-.3.3h-2c-.1 0-.2.1-.2.2v7c0 1.2.5 1.6 1.6 1.6h.5c.2 0 .3.1.3.3v1.5c-.1.1-.2.2-.3.2zM93.2 12h-1.8c-.2 0-.3-.1-.3-.3V9.8c0-.2.1-.3.3-.3h1.8c.2 0 .3.1.3.3v1.9c-.1.2-.2.3-.3.3zm-.1 15.3h-1.7c-.2 0-.3-.1-.3-.3V15.1c0-.2.1-.3.3-.3h1.7c.2 0 .3.1.3.3V27c0 .2-.1.3-.3.3zm9.6 4.9c-1.7 0-3.5-.8-4.3-1.8-.1-.1-.1-.2 0-.4l1.1-1.1c.1-.1.3-.1.4 0 .9.8 1.7 1.2 2.9 1.2 2.1 0 3.1-1.1 3.1-3.4v-1.5c-.6 1-1.6 1.7-3.5 1.7-2.1 0-3.6-1.1-4.2-3-.3-.9-.4-1.8-.4-3.3 0-1.4.1-2.3.4-3.3.6-1.9 2.1-3 4.2-3 1.8 0 2.9.7 3.5 1.7v-1.2c0-.2.1-.3.3-.3h1.7c.2 0 .3.1.3.3v11.6c-.1 3.9-2 5.8-5.5 5.8zm.3-7.1c1.3 0 2.2-.6 2.7-1.9.2-.6.3-1.4.3-2.4s-.1-1.8-.3-2.4c-.4-1.3-1.4-1.8-2.7-1.8-1.4 0-2.2.6-2.6 1.8-.2.6-.3 1.4-.3 2.4s.1 1.8.3 2.4c.4 1.3 1.3 1.9 2.6 1.9zm12.3 2.2h-1.7c-.2 0-.3-.1-.3-.3V15.1c0-.2.1-.3.3-.3h1.7c.2 0 .3.1.3.3v1.3c.5-1.1 1.6-1.8 3.3-1.8 1 0 1.9.4 2.5.9.1.1.2.2.1.4l-1 1.3c-.1.1-.2.2-.4.1-.6-.4-1.2-.6-1.9-.6-1.9 0-2.7 1.5-2.7 3.6V27c.1.2 0 .3-.2.3zm18.2 0H132c-.2 0-.3-.1-.3-.3v-1.1c-.6.9-1.8 1.6-3.7 1.6-2.4 0-4.2-1.2-4.2-3.7 0-2.6 1.8-3.8 4.9-3.8h2.8c.1 0 .2-.1.2-.2v-.9c0-1.7-.7-2.4-3-2.4-1.4 0-2.3.4-3 .9-.1.1-.3.1-.4 0l-.7-1.2c-.1-.2-.1-.3.1-.4.9-.7 2.4-1.2 4.2-1.2 3.5 0 4.9 1.2 4.9 4.2V27c0 .2-.1.3-.3.3zm-5-1.6c1.9 0 3.1-.9 3.1-2.4v-1.4c0-.1-.1-.2-.2-.2H129c-2.2 0-3.1.6-3.1 2 0 1.3 1 2 2.6 2zm15 1.7h-1c-2.4 0-3.4-1.1-3.4-3.5v-7.1c0-.1-.1-.2-.2-.2h-1c-.2 0-.3-.1-.3-.3v-1.2c0-.2.1-.3.3-.3h1c.1 0 .2-.1.2-.2v-3.5c0-.2.1-.3.3-.3h1.7c.2 0 .3.1.3.3v3.5c0 .1.1.2.2.2h2c.2 0 .3.1.3.3v1.2c0 .2-.1.3-.3.3h-2c-.1 0-.2.1-.2.2v7c0 1.2.5 1.6 1.6 1.6h.5c.2 0 .3.1.3.3v1.5c0 .1-.1.2-.3.2zm9.3.2c-2.5 0-4.3-1.2-5-3.4-.3-.8-.4-1.7-.4-3.1s.1-2.4.4-3.1c.7-2.2 2.5-3.4 4.9-3.4s4.2 1.2 4.9 3.4c.3.8.4 1.7.4 3.6 0 .2-.1.3-.3.3h-7.9c-.1 0-.2.1-.2.2 0 .7.1 1.1.2 1.5.5 1.4 1.6 2.2 3.1 2.2s2.5-.6 3.2-1.4c.1-.1.3-.2.4-.1l1.1 1c.1.1.1.2 0 .4-.9 1-2.6 1.9-4.8 1.9zm-3-7.6h5.8c.1 0 .2-.1.2-.2 0-.6-.1-1-.2-1.4-.4-1.2-1.5-2-2.9-2s-2.4.7-2.9 2c-.1.4-.2.8-.2 1.4 0 .1.1.2.2.2z"/><linearGradient id="a"><stop offset="0" stop-color="#445bff"/><stop offset="1" stop-color="#00df8c"/></linearGradient><path d="M2.2 12c1.2 0 2.2 1 2.2 2.2v11c0 1.2-1 2.2-2.2 2.2S0 26.3 0 25.1v-11C0 12.9 1 12 2.2 12zm7.3 4.3c1.2 0 2.2 1 2.2 2.2v2.2c0 1.2-1 2.2-2.2 2.2s-2.2-1-2.2-2.2v-2.2c0-1.2 1-2.2 2.2-2.2zM2.2 2.5c1.2 0 2.2 1 2.2 2.2v2.2c0 1.2-1 2.2-2.2 2.2S0 8.1 0 6.8V4.7c0-1.3 1-2.2 2.2-2.2zm14.6 21.2c1.2 0 2.2 1 2.2 2.2V28c0 1.2-1 2.2-2.2 2.2s-2.2-1-2.2-2.2v-2.2c.1-1.2 1-2.1 2.2-2.1zM9.5.3c1.2 0 2.2 1 2.2 2.2V12c0 1.2-1 2.2-2.2 2.2s-2.2-1-2.2-2.2V2.5c0-1.2 1-2.2 2.2-2.2zm7.3 7.3c1.2 0 2.2 1 2.2 2.2v9.5c0 1.2-1 2.2-2.2 2.2s-2.2-1-2.2-2.2V9.8c.1-1.2 1-2.2 2.2-2.2zM9.5 25.8c1.2 0 2.2 1 2.2 2.2v9.5c0 1.2-1 2.2-2.2 2.2s-2.2-1-2.2-2.2V28c0-1.2 1-2.2 2.2-2.2z" fill="url(#a)"/></svg>