<svg id="Layer_1" xmlns="http://www.w3.org/2000/svg" viewBox="0 0 30 30"><style></style><path d="M14 19.5c-.2 0-.3-.1-.3-.3v-1.1c0-1.1.2-1.6.8-2.4l1.8-2.5c.9-1.3 1.3-1.9 1.3-2.8C17.7 9 16.6 8 15 8c-1.5 0-2.5.9-2.8 2.5 0 .2-.1.2-.3.2l-1.7-.3c-.2 0-.2-.1-.2-.3.4-2.6 2.3-4.3 5.1-4.3 2.9 0 4.9 1.9 4.9 4.6 0 1.3-.5 2.2-1.4 3.5l-1.8 2.5c-.5.7-.7 1.1-.7 2v.9c0 .2-.1.3-.3.3H14v-.1zm-.4 4.3v-2.2c0-.2.1-.3.3-.3h2.2c.2 0 .3.1.3.3v2.2c0 .2-.1.3-.3.3h-2.2c-.1 0-.3-.1-.3-.3z" fill-rule="evenodd" clip-rule="evenodd"/></svg>