<svg id="Layer_1" xmlns="http://www.w3.org/2000/svg" viewBox="0 0 30 30"><style></style><path d="M5 27.6v-15c0-1.2 1-2.2 2.2-2.2V8.1c0-.6.5-1.1 1.1-1.1h1.1V2.6c0-.4.3-.6.6-.6s.6.2.6.6V7h1.1c.6 0 1.1.5 1.1 1.1v2.2c1.2 0 2.2 1 2.2 2.2V17h3.9v-3.3h2.2V12h3.3v1.7h.6v13.9H5zm6.7-18.9c0-.3-.2-.6-.6-.6H8.9c-.3 0-.6.2-.6.6v1.7h3.3l.1-1.7zm2.2 3.9c0-.6-.5-1.1-1.1-1.1H7.2c-.6 0-1.1.5-1.1 1.1v13.9h7.8V12.6zm5 5.5H15v8.3h3.9v-8.3zm5-3.3H20v11.7h3.9V14.8zm-2.2 1.6h.6c.3 0 .6.2.6.6v.6c0 .3-.2.6-.6.6h-.6c-.3 0-.6-.2-.6-.6V17c0-.3.3-.6.6-.6zm0 3.4h.6c.3 0 .6.2.6.6v.6c0 .3-.2.6-.6.6h-.6c-.3 0-.6-.2-.6-.6v-.6c0-.4.3-.6.6-.6zm0 3.3h.6c.3 0 .6.2.6.6v.6c0 .3-.2.6-.6.6h-.6c-.3 0-.6-.2-.6-.6v-.6c0-.3.3-.6.6-.6zm-5-3.3h.6c.3 0 .6.2.6.6v.6c0 .3-.2.6-.6.6h-.6c-.3 0-.6-.2-.6-.6v-.6c0-.4.3-.6.6-.6zm0 3.3h.6c.3 0 .6.2.6.6v.6c0 .3-.2.6-.6.6h-.6c-.3 0-.6-.2-.6-.6v-.6c0-.3.3-.6.6-.6zm-5 1.7h-.6c-.3 0-.6-.2-.6-.6v-.6c0-.3.2-.6.6-.6h.6c.3 0 .6.2.6.6v.6c-.1.3-.3.6-.6.6zm0-3.4h-.6c-.3 0-.6-.2-.6-.6v-.6c0-.3.2-.6.6-.6h.6c.3 0 .6.2.6.6v.6c-.1.4-.3.6-.6.6zm0-3.3h-.6c-.3 0-.6-.2-.6-.6V17c0-.3.2-.6.6-.6h.6c.3 0 .6.2.6.6v.6c-.1.3-.3.5-.6.5zm0-3.3h-.6c-.3 0-.6-.2-.6-.6v-.6c0-.3.2-.6.6-.6h.6c.3 0 .6.2.6.6v.6c-.1.3-.3.6-.6.6zm-2.8 10h-.6c-.3 0-.6-.2-.6-.6v-.6c0-.3.2-.6.6-.6h.6c.3 0 .6.2.6.6v.6c-.1.3-.3.6-.6.6zm0-3.4h-.6c-.3 0-.6-.2-.6-.6v-.6c0-.3.2-.6.6-.6h.6c.3 0 .6.2.6.6v.6c-.1.4-.3.6-.6.6zm0-3.3h-.6c-.3 0-.6-.2-.6-.6V17c0-.3.2-.6.6-.6h.6c.3 0 .6.2.6.6v.6c-.1.3-.3.5-.6.5zm0-3.3h-.6c-.3 0-.6-.2-.6-.6v-.6c0-.3.2-.6.6-.6h.6c.3 0 .6.2.6.6v.6c-.1.3-.3.6-.6.6z"/></svg>